<?xml version="1.0" encoding="utf-8"?>
<!-- Generator: Adobe Illustrator 26.0.1, SVG Export Plug-In . SVG Version: 6.00 Build 0)  -->
<svg version="1.1" xmlns="http://www.w3.org/2000/svg" xmlns:xlink="http://www.w3.org/1999/xlink" x="0px" y="0px"
	 viewBox="0 0 1020 420" style="enable-background:new 0 0 1020 420;" xml:space="preserve">
<style type="text/css">
	.st0{display:none;}
	.st1{display:inline;}
	.st2{fill:#FF7BAC;}
	.st3{display:inline;fill:#FF7BAC;}
	.st4{display:inline;fill:none;stroke:#FF7BAC;stroke-width:15;stroke-miterlimit:10;}
	.st5{fill:#93278F;}
	.st6{fill:none;stroke:#FF7BAC;stroke-width:15;stroke-miterlimit:10;}
	.st7{fill:#FF1D25;}
	.st8{fill:#FBB03B;}
</style>
<g id="Lager_1">
</g>
<g id="stödlinjer">
</g>
<g id="Lager_2" class="st0">
</g>
<g id="Lager_2_kopia">
	<g>
		<g>
			<path class="st5" d="M768.73,194.8c32.02,0,58.07,26.05,58.07,58.07c0,0,0,0,62.22,0c0-66.43-53.85-120.28-120.28-120.28l0,0
				c-66.43,0-120.28,53.85-120.28,120.28h62.22C710.66,220.85,736.71,194.8,768.73,194.8"/>
		</g>
	</g>
	<g>
		<g>
			<rect x="208.79" y="130.51" class="st2" width="62.22" height="234.34"/>
		</g>
	</g>
	<g>
		<g>
			<rect x="470.1" y="130.51" class="st2" width="62.22" height="234.34"/>
		</g>
	</g>
	<g>
		<g>
			<rect x="648.45" y="240.42" class="st2" width="62.22" height="124.43"/>
		</g>
	</g>
	<g>
		<g>
			<rect x="826.8" y="240.42" class="st2" width="62.22" height="124.43"/>
		</g>
	</g>
	<g>
		<g>
			<rect x="938.78" y="130.51" class="st5" width="62.22" height="234.34"/>
		</g>
	</g>
	<g>
		<g>
			<rect x="336.53" y="38.55" class="st2" width="62.22" height="330.45"/>
		</g>
	</g>
	<g>
		<g>
			<circle class="st2" cx="969.89" cy="68.29" r="31.11"/>
		</g>
	</g>
	<g>
		<g>
			<path class="st7" d="M138.28,186.5c32.02,0,58.07,26.05,58.07,58.07s-26.05,58.07-58.07,58.07s-58.07-26.05-58.07-58.07
				S106.26,186.5,138.28,186.5 M138.28,124.29C71.85,124.29,18,178.14,18,244.57s53.85,120.28,120.28,120.28
				S258.57,311,258.57,244.57S204.71,124.29,138.28,124.29L138.28,124.29z"/>
		</g>
	</g>
	<g>
		<g>
			<path class="st8" d="M590.38,194.8c32.02,0,58.07,26.05,58.07,58.07c0,0,0,0,62.22,0c0-66.43-53.85-120.28-120.28-120.28l0,0
				c-66.43,0-120.28,53.85-120.28,120.28h62.22C532.31,220.85,558.36,194.8,590.38,194.8"/>
		</g>
	</g>
</g>
</svg>
