<?xml version="1.0" encoding="utf-8"?>
<!-- Generator: Adobe Illustrator 26.0.1, SVG Export Plug-In . SVG Version: 6.00 Build 0)  -->
<svg version="1.1" id="Lager_1" xmlns="http://www.w3.org/2000/svg" xmlns:xlink="http://www.w3.org/1999/xlink" x="0px" y="0px"
	 viewBox="0 0 1920 1080" style="enable-background:new 0 0 1920 1080;" xml:space="preserve">
<g>
	<path d="M250.07,512.74c67.79,0,122.95,55.15,122.95,122.95s-55.15,122.95-122.95,122.95s-122.95-55.15-122.95-122.95
		S182.28,512.74,250.07,512.74 M250.07,402.44c-128.82,0-233.24,104.43-233.24,233.24s104.43,233.24,233.24,233.24
		c128.82,0,233.24-104.43,233.24-233.24S378.89,402.44,250.07,402.44L250.07,402.44z"/>
</g>
<g>
	<path d="M1278.22,626.62h-110.3c0-61.86-52.6-112.18-117.25-112.18s-117.25,50.32-117.25,112.18h-110.3
		c0-122.68,102.08-222.48,227.55-222.48S1278.22,503.95,1278.22,626.62z"/>
</g>
<g>
	<rect x="371.23" y="410.74" width="113.55" height="459.24"/>
</g>
<g>
	<rect x="1719.29" y="410.42" width="129.95" height="459.59"/>
</g>
<g>
	<rect x="1165.36" y="596.92" width="113.55" height="273.09"/>
</g>
<g>
	<rect x="818.83" y="410.42" width="113.55" height="459.59"/>
</g>
<g>
	<rect x="587.81" y="230.27" width="127.99" height="639.74"/>
</g>
<g>
	<circle cx="1784.2" cy="286.42" r="75.8"/>
</g>
<g>
	<path d="M1622.47,626.38l-110.3-0.01c0-61.85-52.59-112.18-117.24-112.19s-117.25,50.32-117.26,112.17l-110.3-0.01
		c0.01-122.66,102.08-222.46,227.54-222.46c0.01,0,0.01,0,0.02,0C1520.41,403.9,1622.48,503.7,1622.47,626.38z"/>
</g>
<g>
	
		<rect x="1166.69" y="596.64" transform="matrix(-1 -7.319184e-05 7.319184e-05 -1 2446.8677 1466.4613)" width="113.55" height="273.09"/>
</g>
<g>
	
		<rect x="1510.13" y="605.29" transform="matrix(-1 -7.648457e-05 7.648457e-05 -1 3134.1809 1475.1686)" width="113.97" height="264.48"/>
</g>
</svg>
