<?xml version="1.0" encoding="utf-8"?>
<!-- Generator: Adobe Illustrator 26.0.1, SVG Export Plug-In . SVG Version: 6.00 Build 0)  -->
<svg version="1.1" id="Lager_1" xmlns="http://www.w3.org/2000/svg" xmlns:xlink="http://www.w3.org/1999/xlink" x="0px" y="0px"
	 viewBox="0 0 300 300" style="enable-background:new 0 0 300 300;" xml:space="preserve">
<style type="text/css">
	.st0{fill:#00F0AF;}
	.st1{fill:#FA1996;}
	.st2{fill:#A5FAE6;}
	.st3{fill:#CD9BD7;}
	.st4{fill:#870AA0;}
	.st5{fill:#FF5F0A;}
	.st6{fill:#FFBE9B;}
	.st7{fill:#FFFFFF;}
	.st8{fill:#FFFFFF;stroke:#FFFFFF;stroke-width:5;stroke-miterlimit:10;}
	.st9{fill:none;stroke:#FFFFFF;stroke-width:5;stroke-miterlimit:10;}
	.st10{fill:none;stroke:#FFFFFF;stroke-width:10;stroke-miterlimit:10;}
	.st11{fill:#FFFFFF;stroke:#FFFFFF;stroke-miterlimit:10;}
</style>
<g>
	<g>
		<circle class="st1" cx="150" cy="149" r="127"/>
	</g>
	<g>
		<g>
			<path class="st7" d="M109.09,84.9c0,0,12.46-8.06,21.99-9.53c1.47-3.66,5.86-15.39,5.86-15.39s12.38-2.2,23.78,0
				c1.87,3.66,4.8,15.39,4.8,15.39s14.27,2.2,22.89,9.53c5.69-2.93,14.49-7.33,14.49-7.33s10.26,8.06,16.86,16.86
				c-1.47,3.66-6.6,15.39-6.6,15.39s5.13,5.13,8.8,21.26c3.66,1.47,15.39,5.13,15.39,5.13s2.2,17.83,0,24.67
				c-3.66,1.72-14.66,4.65-14.66,4.65s-2.2,13.93-9.53,22.72c2.93,5.86,6.6,14.66,6.6,14.66s-6.6,11.73-16.86,16.86
				c-5.13-1.47-14.66-6.6-14.66-6.6s-9.53,6.6-21.99,8.8c-1.47,5.13-5.13,15.39-5.13,15.39s-8.17,2.2-24.61,0
				c-3.24-8.06-4.71-14.66-4.71-14.66s-11.73-2.48-22.72-9.67c-4.4,2.34-14.66,7.47-14.66,7.47s-8.06-4.4-17.59-17.59
				c2.93-4.4,7.33-13.93,7.33-13.93s-7.53-13.93-8.53-21.99c-3.2-1.47-15.66-5.13-15.66-5.13s-2.2-16.89,0-24.94
				c4.4-2.18,15.39-5.12,15.39-5.12s0.73-10.26,8.8-22.72c-1.47-4.4-7.33-14.66-7.33-14.66s8.8-11.73,17.59-16.86
				C98.82,79.03,109.09,84.9,109.09,84.9z"/>
			<circle class="st1" cx="148.3" cy="149.03" r="54.61"/>
		</g>
		<circle class="st11" cx="148.96" cy="148.96" r="37.23"/>
	</g>
</g>
</svg>
