<?xml version="1.0" encoding="utf-8"?>
<!-- Generator: Adobe Illustrator 26.0.1, SVG Export Plug-In . SVG Version: 6.00 Build 0)  -->
<svg version="1.1" id="Lager_1" xmlns="http://www.w3.org/2000/svg" xmlns:xlink="http://www.w3.org/1999/xlink" x="0px" y="0px"
	 viewBox="0 0 300 300" style="enable-background:new 0 0 300 300;" xml:space="preserve">
<style type="text/css">
	.st0{fill:#00F0AF;}
	.st1{fill:#FA1996;}
	.st2{fill:#A5FAE6;}
	.st3{fill:#CD9BD7;}
	.st4{fill:#870AA0;}
	.st5{fill:#FF5F0A;}
	.st6{fill:#FFBE9B;}
	.st7{fill:#FFFFFF;}
	.st8{fill:#FFFFFF;stroke:#FFFFFF;stroke-width:5;stroke-miterlimit:10;}
	.st9{fill:none;stroke:#FFFFFF;stroke-width:5;stroke-miterlimit:10;}
	.st10{fill:none;stroke:#FFFFFF;stroke-width:10;stroke-miterlimit:10;}
	.st11{fill:#FFFFFF;stroke:#FFFFFF;stroke-miterlimit:10;}
</style>
<g>
	<g>
		<circle class="st1" cx="150" cy="150" r="127"/>
	</g>
	<g>
		<circle class="st7" cx="90" cy="160" r="47"/>
		<path class="st1" d="M143.76,179.72L98,169c0,0,1.08,37.57,26.54,38.79C150,209,143.76,179.72,143.76,179.72z"/>
		<circle class="st1" cx="109" cy="150" r="6"/>
		<path class="st7" d="M118,260c-6.22-52.47-18-48-18-48s-26,6-38-8c-11,13-11,13-11,13s26,38,67,49"/>
	</g>
	<g>
		<circle class="st7" cx="213" cy="159" r="47"/>
		<path class="st1" d="M159.24,178.72L205,168c0,0-1.08,37.57-26.54,38.79C153,208,159.24,178.72,159.24,178.72z"/>
		<circle class="st1" cx="194" cy="149" r="6"/>
		<path class="st7" d="M185,259c6.22-52.47,18-48,18-48s26,6,38-8c11,13,11,13,11,13s-26,38-67,49"/>
	</g>
</g>
</svg>
